<svg width="60" height="68" viewBox="0 0 60 68" fill="none" xmlns="http://www.w3.org/2000/svg">
<path d="M40.2651 1.91641C41.2551 2.49391 42.2451 3.07141 43.2651 3.66641C44.2758 4.24391 45.2864 4.82141 46.3276 5.41641C52.6691 10.2737 57.4304 16.1679 58.9175 24.182C59.6716 34.0578 58.834 40.7097 53.0151 48.7914C52.1489 49.7195 52.1489 49.7195 51.2651 50.6664C49.9451 50.0064 48.6251 49.3464 47.2651 48.6664C47.866 45.776 48.778 43.7228 50.3276 41.2289C53.4695 35.0718 53.4174 27.8595 51.605 21.2641C48.883 15.1247 43.5379 10.0978 37.2651 7.66641C27.9865 6.79618 21.2239 7.28541 13.5151 12.5414C9.03558 16.7721 7.43997 20.8759 7.06202 26.9086C7.04656 28.1074 7.03109 29.3063 7.01515 30.5414C6.98937 31.7351 6.96359 32.9288 6.93702 34.1586C7.29424 37.9775 8.48658 40.3128 10.2651 43.6664C9.45265 46.0414 9.45265 46.0414 8.26515 47.6664C7.27515 47.6664 6.28515 47.6664 5.26515 47.6664C0.459565 39.7604 -0.577911 32.9516 0.265149 23.6664C2.71449 14.4782 7.11404 9.16253 14.9487 3.99844C22.3255 -0.243481 32.2128 -1.38759 40.2651 1.91641Z" fill="#2D37DF"/>
<path d="M23.2651 26.6665C24.2551 26.6665 25.2451 26.6665 26.2651 26.6665C26.2651 33.2665 26.2651 39.8665 26.2651 46.6665C26.9251 46.6665 27.5851 46.6665 28.2651 46.6665C28.2651 43.0365 28.2651 39.4065 28.2651 35.6665C29.2551 35.6665 30.2451 35.6665 31.2651 35.6665C31.2651 39.6265 31.2651 43.5865 31.2651 47.6665C31.9251 47.6665 32.5851 47.6665 33.2651 47.6665C33.2651 44.3665 33.2651 41.0665 33.2651 37.6665C34.2551 37.6665 35.2451 37.6665 36.2651 37.6665C36.5951 40.9665 36.9251 44.2665 37.2651 47.6665C37.5951 45.3565 37.9251 43.0465 38.2651 40.6665C39.2551 40.6665 40.2451 40.6665 41.2651 40.6665C41.4004 43.7305 41.4994 46.7885 41.5776 49.854C41.6195 50.7183 41.6614 51.5826 41.7046 52.4731C41.7924 57.0569 41.7896 58.9984 38.8706 62.7173C35.0597 65.5683 33.0546 66.2874 28.2651 65.6665C22.0612 62.1928 17.1291 56.7633 12.2651 51.6665C12.5951 50.6765 12.9251 49.6865 13.2651 48.6665C17.4308 50.4289 19.4804 52.5126 23.2651 55.6665C23.2651 46.0965 23.2651 36.5265 23.2651 26.6665Z" fill="#F8F8F8"/>
<path d="M40.4057 12.3188C44.1356 15.0222 47.2034 18.5431 49.2651 22.6665C49.3621 24.8105 49.3948 26.9577 49.3901 29.104C49.3939 30.8345 49.3939 30.8345 49.3979 32.6C49.2651 35.6665 49.2651 35.6665 48.2651 38.6665C46.9451 38.3365 45.6251 38.0065 44.2651 37.6665C44.2393 36.8698 44.2135 36.0732 44.1869 35.2524C43.7877 26.714 43.7877 26.714 39.2651 19.6665C34.4982 16.4163 30.8531 16.1343 25.2651 16.6665C22.0777 18.1539 19.471 19.909 17.2651 22.6665C16.4419 25.3804 16.0985 27.9504 15.9487 30.7758C15.9068 31.5299 15.8649 32.284 15.8217 33.061C15.7627 34.2269 15.7627 34.2269 15.7026 35.4165C15.6594 36.2092 15.6162 37.002 15.5717 37.8188C15.466 39.7678 15.3651 41.7171 15.2651 43.6665C10.2689 37.7032 9.91598 33.4733 9.98381 25.8344C10.3474 21.7389 11.4842 19.6728 14.2651 16.6665C15.0488 15.759 15.8326 14.8515 16.6401 13.9165C23.4811 8.05269 32.7308 8.03622 40.4057 12.3188Z" fill="#0BDF86"/>
<path d="M23.2651 24.6665C26.8009 25.2022 26.8009 25.2022 28.2651 26.6665C28.3061 28.9995 28.3076 31.3336 28.2651 33.6665C28.9032 33.7877 29.5413 33.9088 30.1987 34.0337C31.025 34.2013 31.8513 34.3688 32.7026 34.5415C33.5263 34.7039 34.3501 34.8663 35.1987 35.0337C35.8806 35.2425 36.5626 35.4513 37.2651 35.6665C37.5951 36.3265 37.9251 36.9865 38.2651 37.6665C38.9251 37.8315 39.5851 37.9965 40.2651 38.1665C40.9251 38.3315 41.5851 38.4965 42.2651 38.6665C43.9405 42.0172 43.534 45.7357 43.5776 49.4165C43.6066 50.2157 43.6356 51.0149 43.6655 51.8384C43.7235 57.2598 42.9729 60.4328 39.2651 64.6665C35.8664 66.9613 32.6637 67.2668 28.6323 67.1743C24.0822 66.1982 21.3978 62.9131 18.2651 59.6665C17.2307 58.7519 17.2307 58.7519 16.1753 57.8188C14.3526 56.1766 12.72 54.6423 11.2651 52.6665C11.3276 49.729 11.3276 49.729 12.2651 47.6665C16.0415 48.1768 17.7124 48.8742 20.2651 51.6665C20.285 50.9197 20.3048 50.1728 20.3252 49.4033C20.4202 46.0323 20.53 42.662 20.6401 39.2915C20.6711 38.1159 20.702 36.9403 20.7339 35.729C20.7726 34.6075 20.8112 33.486 20.8511 32.3306C20.8825 31.2937 20.9139 30.2568 20.9463 29.1885C21.2651 26.6665 21.2651 26.6665 23.2651 24.6665ZM23.2651 26.6665C23.2651 36.2365 23.2651 45.8065 23.2651 55.6665C20.6251 53.3565 17.9851 51.0465 15.2651 48.6665C14.2751 48.9965 13.2851 49.3265 12.2651 49.6665C13.7761 53.2136 15.8535 55.5231 18.5776 58.229C19.3369 58.9934 20.0962 59.7578 20.8784 60.5454C24.1713 63.4718 26.8501 65.4896 31.2651 66.0415C34.6894 65.6135 36.5174 64.7273 39.2651 62.6665C41.3672 59.5134 41.5086 58.8055 41.4604 55.2173C41.454 54.3697 41.4476 53.5222 41.4409 52.6489C41.4242 51.7679 41.4074 50.8868 41.3901 49.979C41.3811 49.0863 41.3721 48.1937 41.3628 47.2739C41.3392 45.0712 41.3063 42.869 41.2651 40.6665C40.2751 40.6665 39.2851 40.6665 38.2651 40.6665C37.9351 42.9765 37.6051 45.2865 37.2651 47.6665C36.7701 42.7165 36.7701 42.7165 36.2651 37.6665C35.2751 37.6665 34.2851 37.6665 33.2651 37.6665C33.2651 40.9665 33.2651 44.2665 33.2651 47.6665C32.6051 47.6665 31.9451 47.6665 31.2651 47.6665C31.2651 43.7065 31.2651 39.7465 31.2651 35.6665C30.2751 35.6665 29.2851 35.6665 28.2651 35.6665C28.2651 39.2965 28.2651 42.9265 28.2651 46.6665C27.6051 46.6665 26.9451 46.6665 26.2651 46.6665C26.2651 40.0665 26.2651 33.4665 26.2651 26.6665C25.2751 26.6665 24.2851 26.6665 23.2651 26.6665Z" fill="#4A4748"/>
<path d="M36.2651 36.6665C38.2856 37.2683 40.2862 37.9396 42.2651 38.6665C43.9405 42.0172 43.534 45.7357 43.5776 49.4165C43.6066 50.2157 43.6356 51.0149 43.6655 51.8384C43.7236 57.2673 42.9322 60.3938 39.2651 64.6665C36.5151 66.0415 36.5151 66.0415 34.2651 66.6665C34.2651 66.0065 34.2651 65.3465 34.2651 64.6665C35.0695 64.3984 35.8739 64.1303 36.7026 63.854C37.5483 63.4621 38.3939 63.0703 39.2651 62.6665C40.1735 59.9415 40.4487 58.0442 40.5815 55.2173C40.6234 54.3697 40.6653 53.5222 40.7085 52.6489C40.7675 51.3273 40.7675 51.3273 40.8276 49.979C40.8924 48.64 40.8924 48.64 40.9585 47.2739C41.0645 45.0716 41.1666 42.8692 41.2651 40.6665C40.2751 40.6665 39.2851 40.6665 38.2651 40.6665C38.2651 43.3065 38.2651 45.9465 38.2651 48.6665C37.6051 48.3365 36.9451 48.0065 36.2651 47.6665C36.2651 44.0365 36.2651 40.4065 36.2651 36.6665Z" fill="#514E4F"/>
<path d="M12.2651 47.6665C16.6663 48.1695 18.9771 49.7542 22.2651 52.6665C21.9351 53.6565 21.6051 54.6465 21.2651 55.6665C20.6503 55.0168 20.6503 55.0168 20.0229 54.354C19.4841 53.7971 18.9453 53.2403 18.3901 52.6665C17.8565 52.1096 17.3228 51.5528 16.7729 50.979C15.3469 49.4476 15.3469 49.4476 13.2651 49.6665C16.001 55.938 22.0251 61.8749 28.2651 64.6665C31.4591 65.3805 31.4591 65.3805 34.2651 65.6665C34.2651 65.9965 34.2651 66.3265 34.2651 66.6665C27.5806 67.5021 27.5806 67.5021 24.1987 65.354C22.1265 63.5373 20.1962 61.6321 18.2651 59.6665C17.2287 58.7519 17.2287 58.7519 16.1714 57.8188C14.3516 56.176 12.719 54.6409 11.2651 52.6665C11.3276 49.729 11.3276 49.729 12.2651 47.6665Z" fill="#3C3839"/>
</svg>
